<?xml version="1.0" encoding="iso-8859-1"?>
<!-- Generator: Adobe Illustrator 19.0.0, SVG Export Plug-In . SVG Version: 6.00 Build 0)  -->
<svg version="1.1" id="Capa_1" xmlns="http://www.w3.org/2000/svg" xmlns:xlink="http://www.w3.org/1999/xlink" x="0px" y="0px"
	 viewBox="0 0 512 512" style="enable-background:new 0 0 512 512;" xml:space="preserve">
<polygon style="fill:#57555C;" points="288,296.787 288,339.213 392.894,444.106 414.106,422.894 "/>
<polygon style="fill:#8B8992;" points="109.394,160.606 224,275.213 224,232.787 130.606,139.394 "/>
<polygon style="fill:#57555C;" points="381.394,139.394 288,232.787 288,275.213 402.606,160.606 "/>
<polygon style="fill:#8B8992;" points="119.606,443.606 224,339.213 224,296.787 98.394,422.394 "/>
<path style="fill:#B87FD9;" d="M256,371c-63.411,0-115-51.589-115-115s51.589-115,115-115s115,51.589,115,115S319.411,371,256,371z"
	/>
<path style="fill:#8034AD;" d="M256,141v230c63.411,0,115-51.589,115-115S319.411,141,256,141z"/>
<path style="fill:#E3CEF0;" d="M256,141c-63.411,0-115,51.589-115,115s51.589,115,115,115s115-51.589,115-115S319.411,141,256,141z
	 M339.648,241h-29.085c-1.215-20.931-4.973-41.26-11.191-58.063C320.166,195.328,335.235,216.336,339.648,241z M256,341
	c-2.092,0-8.355-4.854-14.357-19.86c-5.368-13.421-8.911-31.153-10.148-50.14h49.009c-1.237,18.987-4.779,36.719-10.147,50.14
	C264.355,336.146,258.093,341,256,341z M231.495,241c1.237-18.987,4.779-36.718,10.148-50.14C247.645,175.854,253.908,171,256,171
	c2.093,0,8.355,4.854,14.357,19.86c5.369,13.421,8.911,31.152,10.147,50.14H231.495z M212.628,182.937
	c-6.219,16.803-9.976,37.131-11.191,58.063h-29.085C176.765,216.336,191.834,195.328,212.628,182.937z M172.352,271h29.085
	c1.215,20.931,4.972,41.26,11.191,58.063C191.834,316.672,176.765,295.664,172.352,271z M299.371,329.063
	c6.219-16.803,9.976-37.132,11.191-58.063h29.085C335.235,295.664,320.166,316.672,299.371,329.063z"/>
<path style="fill:#FF9A00;" d="M150,170H0v-45c0-24.813,20.187-45,45-45h60c24.813,0,45,20.187,45,45V170z"/>
<path style="fill:#E67500;" d="M105,80H75v90h75v-45C150,100.187,129.813,80,105,80z"/>
<path style="fill:#FFE477;" d="M75,110c-30.327,0-55-24.673-55-55S44.673,0,75,0s55,24.673,55,55S105.327,110,75,110z"/>
<path style="fill:#FFA733;" d="M75,0v110c30.327,0,55-24.673,55-55S105.327,0,75,0z"/>
<path style="fill:#D5B4E8;" d="M270.357,190.86c5.369,13.421,8.911,31.152,10.147,50.14H256v30h24.505
	c-1.237,18.987-4.779,36.719-10.147,50.14C264.355,336.146,258.093,341,256,341v30c63.411,0,115-51.589,115-115s-51.589-115-115-115
	v30C258.093,171,264.355,175.854,270.357,190.86z M339.648,241h-29.085c-1.215-20.931-4.973-41.26-11.191-58.063
	C320.166,195.328,335.235,216.336,339.648,241z M310.563,271h29.085c-4.412,24.664-19.482,45.672-40.276,58.063
	C305.59,312.26,309.348,291.931,310.563,271z"/>
<path style="fill:#005ECE;" d="M512,170H362v-45c0-24.813,20.187-45,45-45h60c24.813,0,45,20.187,45,45V170z"/>
<path style="fill:#003F8A;" d="M467,80h-30v90h75v-45C512,100.187,491.813,80,467,80z"/>
<path style="fill:#FFE477;" d="M437,110c-30.327,0-55-24.673-55-55s24.673-55,55-55s55,24.673,55,55S467.327,110,437,110z"/>
<path style="fill:#FFA733;" d="M437,0v110c30.327,0,55-24.673,55-55S467.327,0,437,0z"/>
<path style="fill:#B87FD9;" d="M150,512H0v-45c0-24.813,20.187-45,45-45h60c24.813,0,45,20.187,45,45V512z"/>
<path style="fill:#8034AD;" d="M105,422H75v90h75v-45C150,442.187,129.813,422,105,422z"/>
<path style="fill:#FFE477;" d="M75,452c-30.327,0-55-24.673-55-55s24.673-55,55-55s55,24.673,55,55S105.327,452,75,452z"/>
<path style="fill:#FFA733;" d="M75,342v110c30.327,0,55-24.673,55-55S105.327,342,75,342z"/>
<path style="fill:#8B8992;" d="M512,512H362v-45c0-24.813,20.187-45,45-45h60c24.813,0,45,20.187,45,45V512z"/>
<path style="fill:#57555C;" d="M467,422h-30v90h75v-45C512,442.187,491.813,422,467,422z"/>
<path style="fill:#FFE477;" d="M437,452c-30.327,0-55-24.673-55-55s24.673-55,55-55s55,24.673,55,55S467.327,452,437,452z"/>
<path style="fill:#FFA733;" d="M437,342v110c30.327,0,55-24.673,55-55S467.327,342,437,342z"/>
<g>
</g>
<g>
</g>
<g>
</g>
<g>
</g>
<g>
</g>
<g>
</g>
<g>
</g>
<g>
</g>
<g>
</g>
<g>
</g>
<g>
</g>
<g>
</g>
<g>
</g>
<g>
</g>
<g>
</g>
</svg>
